<svg id="etx5jcrlMi61" xmlns="http://www.w3.org/2000/svg" xmlns:xlink="http://www.w3.org/1999/xlink" viewBox="0 0 200 200" shape-rendering="geometricPrecision" text-rendering="geometricPrecision" project-id="69ce0af606304978b96a6feb0a7a9c41" export-id="784bb155821b49e39fad95b3b36170dc" cached="false"><defs><filter id="etx5jcrlMi62-filter" x="-150%" y="-150%" width="400%" height="400%"><feGaussianBlur id="etx5jcrlMi62-filter-drop-shadow-0-blur" in="SourceAlpha" stdDeviation="0,0"/><feOffset id="etx5jcrlMi62-filter-drop-shadow-0-offset" dx="0" dy="0" result="tmp"/><feFlood id="etx5jcrlMi62-filter-drop-shadow-0-flood" flood-color="#000"/><feComposite id="etx5jcrlMi62-filter-drop-shadow-0-composite" operator="in" in2="tmp"/><feMerge id="etx5jcrlMi62-filter-drop-shadow-0-merge" result="result"><feMergeNode id="etx5jcrlMi62-filter-drop-shadow-0-merge-node-1"/><feMergeNode id="etx5jcrlMi62-filter-drop-shadow-0-merge-node-2" in="SourceGraphic"/></feMerge></filter><filter id="etx5jcrlMi63-filter" x="-150%" y="-150%" width="400%" height="400%"><feGaussianBlur id="etx5jcrlMi63-filter-drop-shadow-0-blur" in="SourceAlpha" stdDeviation="0,0"/><feOffset id="etx5jcrlMi63-filter-drop-shadow-0-offset" dx="0" dy="0" result="tmp"/><feFlood id="etx5jcrlMi63-filter-drop-shadow-0-flood" flood-color="#ff0101"/><feComposite id="etx5jcrlMi63-filter-drop-shadow-0-composite" operator="in" in2="tmp"/><feMerge id="etx5jcrlMi63-filter-drop-shadow-0-merge" result="result"><feMergeNode id="etx5jcrlMi63-filter-drop-shadow-0-merge-node-1"/><feMergeNode id="etx5jcrlMi63-filter-drop-shadow-0-merge-node-2" in="SourceGraphic"/></feMerge></filter></defs><g transform="matrix(8 0 0 6.16 4 42.27535)" filter="url(#etx5jcrlMi62-filter)"><path d="M19.2353,6L21.5,6c.2761,0,.5.22386.5.5v13.039c0,.4046-.4767.6734-.8465.5091-.7951-.3533-2.122-.7849-3.8594-.7849C14.3529,19.2632,12,21,12,21s-2.35294-1.7368-5.29412-1.7368c-1.73743,0-3.06432.4316-3.85941.7849C2.47668,20.2124,2,19.9436,2,19.539L2,6.5c0-.27614.22386-.5.5-.5h2.26471" fill="none" stroke="#f60a0a" stroke-linejoin="round"/></g><g transform="matrix(.3 0 0 0.3 23.199683 7.055352)"><path d="M256,346.831c-11.246,0-22.143-2.391-32.386-7.104L112.793,288.71v101.638c0,22.314,67.426,50.621,143.207,50.621c75.782,0,143.209-28.308,143.209-50.621v-101.638L288.382,339.727c-10.237,4.713-21.132,7.104-32.382,7.104Z" fill="#fa0000"/><path d="M505.837,180.418L279.265,76.124c-7.349-3.385-15.177-5.093-23.265-5.093s-15.914,1.708-23.265,5.093L6.163,180.418C2.418,182.149,0,185.922,0,190.045s2.418,7.896,6.163,9.627L232.735,303.966c7.349,3.385,15.177,5.101,23.265,5.101s15.916-1.716,23.267-5.101L458.079,221.66v82.881c-7.096.8-12.63,6.84-12.63,14.138c0,6.359,4.208,11.864,10.206,13.618l-12.092,79.791h55.676l-12.09-79.791c5.996-1.754,10.204-7.259,10.204-13.618c0-7.298-5.534-13.338-12.63-14.138v-95.148l21.116-9.721c3.744-1.731,6.163-5.504,6.163-9.627s-2.42-7.896-6.165-9.627Z" fill="#f00"/></g><path d="" transform="matrix(4 0 0 4-100.000035-25.885195)" fill="none" stroke="#3f5787" stroke-width="0.5"/></svg>
