<?xml version="1.0" encoding="UTF-8" standalone="no"?>
<svg
   width="480"
   height="160"
   viewBox="0 0 480 160"
   version="1.1"
   id="svg15"
   sodipodi:docname="pmf_logo3-1-LAT.svg"
   inkscape:version="1.1.2 (b8e25be833, 2022-02-05)"
   xmlns:inkscape="http://www.inkscape.org/namespaces/inkscape"
   xmlns:sodipodi="http://sodipodi.sourceforge.net/DTD/sodipodi-0.dtd"
   xmlns="http://www.w3.org/2000/svg"
   xmlns:svg="http://www.w3.org/2000/svg"
   xmlns:rdf="http://www.w3.org/1999/02/22-rdf-syntax-ns#"
   xmlns:x="adobe:ns:meta/">
  <sodipodi:namedview
     id="namedview17"
     pagecolor="#ffffff"
     bordercolor="#666666"
     borderopacity="1.0"
     inkscape:pageshadow="2"
     inkscape:pageopacity="0.0"
     inkscape:pagecheckerboard="0"
     showgrid="false"
     inkscape:zoom="2.6099046"
     inkscape:cx="236.02395"
     inkscape:cy="80.845866"
     inkscape:window-width="1920"
     inkscape:window-height="1017"
     inkscape:window-x="-8"
     inkscape:window-y="-8"
     inkscape:window-maximized="1"
     inkscape:current-layer="svg15"
     showguides="true"
     inkscape:guide-bbox="true">
    <sodipodi:guide
       position="217.624,62.984"
       orientation="0,-1"
       id="guide827" />
    <sodipodi:guide
       position="264.521,44.5"
       orientation="0,-1"
       id="guide829" />
    <sodipodi:guide
       position="161.80634,99.809339"
       orientation="1,0"
       id="guide831" />
  </sodipodi:namedview>
  <metadata
     id="metadata2">
<?xpacket begin="﻿" id="W5M0MpCehiHzreSzNTczkc9d"?>    <x:xmpmeta
       x:xmptk="Adobe XMP Core 5.6-c142 79.160924, 2017/07/13-01:06:39        ">
      <rdf:RDF>
        <rdf:Description
           rdf:about="" />
      </rdf:RDF>
    </x:xmpmeta>
<?xpacket end="w"?>  </metadata>
  <defs
     id="defs6">
    <style
       id="style4">
      .cls-1 {
        fill: #ba1e1e;
      }

      .cls-1, .cls-2, .cls-3 {
        fill-rule: evenodd;
      }

      .cls-2 {
        fill: #797979;
      }

      .cls-3 {
        fill: #25303e;
      }
    </style>
  </defs>
  <path
     class="cls-1"
     d="M20.592,35.753l0.174-.092-0.1.177Zm94.031,2.923,8.432-34.17L97.46,28.611a56.359,56.359,0,0,0-55.5,96.225L33.63,158.5l25.438-23.859-0.1-.071A56.348,56.348,0,0,0,114.623,38.675ZM78.018,131.162A49.641,49.641,0,1,1,127.7,81.521,49.715,49.715,0,0,1,78.018,131.162ZM97.653,51.849l-5.041,8.644q-4.934,8.463-9.861,16.929a0.541,0.541,0,0,1-.545.309c-2.3-.01-4.6-0.013-6.9,0a0.615,0.615,0,0,1-.609-0.361q-4.431-7.485-8.874-14.964-2.964-5-5.925-10c-0.029-.049-0.066-0.093-0.145-0.2-0.863.629-1.736,1.23-2.571,1.881A33.987,33.987,0,0,0,44.306,76.355a35.189,35.189,0,0,0-.213,7.442,34.174,34.174,0,0,0,3.889,13.524,33.1,33.1,0,0,0,4.473,6.486,35.1,35.1,0,0,0,9.92,7.814,0.488,0.488,0,0,1,.239.339c0.014,2.129.01,4.257,0.01,6.466a40.464,40.464,0,0,1-12.239-8,38.885,38.885,0,0,1-11.842-22.6A40.164,40.164,0,0,1,62.758,43.876L78.79,71.121,94.922,43.789a39.822,39.822,0,0,1,25.017,38.76,39.643,39.643,0,0,1-24.972,35.985c0-2.106,0-4.218.012-6.331a0.544,0.544,0,0,1,.276-0.372,34.729,34.729,0,0,0,7.474-5.119,33.59,33.59,0,0,0,8.354-11.487,34.427,34.427,0,0,0,2.886-16.518,33.982,33.982,0,0,0-3.711-13.35,33.306,33.306,0,0,0-6.071-8.344A34.814,34.814,0,0,0,97.653,51.849ZM92.806,79.5v39.4H86.853Q86.781,102,86.709,85.106H70.473q0.143,16.884.286,33.774H64.825V79.5H92.806Z"
     id="path8" />
  <path
     class="cls-3"
     d="M76.359,157.5A76.731,76.731,0,0,1,1.794,99.2l6.269-1.568A70.4,70.4,0,1,0,54.612,13.405L52.618,7.248A76.98,76.98,0,1,1,76.359,157.5Z"
     id="path13" />
  <g
     id="g10122"
     transform="translate(0,4)">
    <path
       id="univerzitet_u_nišu"
       data-name="univerzitet u nišu"
       class="cls-2"
       d="M 163.4,43.739 V 35.5 h -1.6 v 8.242 c 0,3.661 2.221,5.821 5.9,5.821 3.66,0 5.861,-2.16 5.861,-5.821 V 35.5 h -1.6 v 8.242 c 0,2.761 -1.6,4.361 -4.261,4.361 a 3.981,3.981 0 0 1 -4.3,-4.364 z M 177.48,35.5 v 14 h 1.6 V 38.138 l 8.4,11.362 h 1.641 v -14 h -1.581 v 11.379 l -8.4,-11.382 h -1.66 z m 15.9,0 v 14 h 1.6 v -14 z m 3.84,0 5.681,14 h 1.66 l 5.721,-14 H 208.6 l -4.841,12.2 -4.819,-12.2 z m 15.3,0 v 14 h 9.762 v -1.48 h -8.162 v -4.881 h 7.062 v -1.46 h -7.062 v -4.7 h 7.9 V 35.5 Z m 24,14 -3.3,-4.781 a 4.377,4.377 0 0 0 3.161,-4.521 c 0,-2.981 -2.02,-4.7 -5.521,-4.7 h -5.32 v 14 h 1.6 v -4.439 h 3.721 c 0.32,0 0.62,-0.02 0.9,-0.04 L 234.7,49.5 Z m -9.382,-5.921 v -6.6 h 3.721 c 2.54,0 3.981,1.12 3.981,3.261 0,2.2 -1.441,3.341 -3.981,3.341 H 227.14 Z M 239,35.5 v 1.48 h 9.022 l -9.283,11.28 V 49.5 H 250.2 l 0.02,-1.48 h -9.38 l 9.282,-11.282 V 35.5 Z m 14.2,0 v 14 h 1.6 v -14 z m 3.94,0 v 1.48 h 4.56 V 49.5 h 1.6 V 36.977 h 4.581 V 35.5 h -10.742 z m 13.06,0 v 14 h 9.762 V 48.02 H 271.8 v -4.881 h 7.062 v -1.46 H 271.8 v -4.7 h 7.9 V 35.5 Z m 11.119,0 v 1.48 h 4.561 V 49.5 h 1.6 V 36.977 h 4.581 V 35.5 h -10.743 z m 19.821,8.242 V 35.5 h -1.6 v 8.242 c 0,3.661 2.221,5.821 5.9,5.821 3.66,0 5.861,-2.16 5.861,-5.821 V 35.5 h -1.6 v 8.242 c 0,2.761 -1.6,4.361 -4.261,4.361 a 3.981,3.981 0 0 1 -4.301,-4.364 z M 320.7,35.5 v 14 h 1.6 V 38.138 l 8.4,11.362 h 1.641 v -14 h -1.581 v 11.379 l -8.4,-11.382 h -1.66 z m 15.9,0 v 14 h 1.6 v -14 z m 6.92,-4.381 2.081,2.7 h 1.64 l 2.08,-2.7 h -1.46 L 346.419,33 344.978,31.12 h -1.46 z m 6.842,7.042 0.68,-1.42 a 8.286,8.286 0 0 0 -4.441,-1.3 c -2.9,0 -4.841,1.4 -4.841,3.6 0,5.021 7.881,3.041 7.861,6.781 0,1.36 -1.26,2.18 -3.28,2.18 a 7.034,7.034 0 0 1 -4.661,-1.96 l -0.72,1.38 a 7.99,7.99 0 0 0 5.361,2.14 c 3,0 5.061,-1.5 5.061,-3.821 0.02,-5.081 -7.862,-3.181 -7.862,-6.821 0,-1.2 1.18,-1.92 2.981,-1.92 a 7.379,7.379 0 0 1 3.859,1.158 z m 5.578,5.581 V 35.5 h -1.6 v 8.242 c 0,3.661 2.22,5.821 5.9,5.821 3.661,0 5.861,-2.16 5.861,-5.821 V 35.5 h -1.6 v 8.242 c 0,2.761 -1.6,4.361 -4.261,4.361 a 3.981,3.981 0 0 1 -4.302,-4.364 z"
       style="fill:#797979;fill-opacity:1;stroke:#797979;stroke-opacity:1" />
    <path
       id="Prirodno-matematički"
       class="cls-3"
       d="m 168.95634,79.987 a 7.746,7.746 0 0 0 5.148,-1.568 5.307,5.307 0 0 0 1.86,-4.285 6.036,6.036 0 0 0 -0.851,-3.193 5.612,5.612 0 0 0 -2.431,-2.165 8.346,8.346 0 0 0 -3.663,-0.762 h -7.213 V 86.5 h 3.809 v -6.513 z m -3.341,-8.887 h 3.491 a 2.987,2.987 0 0 1 2.209,0.863 3.05,3.05 0 0 1 0.8,2.2 2.588,2.588 0 0 1 -0.793,2.031 3.349,3.349 0 0 1 -2.305,0.711 h -3.4 V 71.1 Z m 23.27,15.4 h 4.088 v -0.178 l -4,-7.554 a 5.583,5.583 0 0 0 2.482,-2.012 5.685,5.685 0 0 0 0.819,-3.155 5.038,5.038 0 0 0 -1.777,-4.126 7.765,7.765 0 0 0 -5.053,-1.46 h -6.868 V 86.5 h 3.808 v -6.767 h 3.035 z m -6.5,-15.4 h 3.06 a 3.087,3.087 0 0 1 2.279,0.749 2.794,2.794 0 0 1 0.743,2.057 2.609,2.609 0 0 1 -0.788,2.012 3.143,3.143 0 0 1 -2.221,0.73 h -3.073 z m 16.834,-3.085 h -3.808 V 86.5 h 3.808 V 68.016 Z m 13.837,18.485 h 4.088 v -0.178 l -4,-7.554 a 5.583,5.583 0 0 0 2.482,-2.012 5.685,5.685 0 0 0 0.819,-3.155 5.038,5.038 0 0 0 -1.777,-4.126 7.765,7.765 0 0 0 -5.053,-1.46 h -6.868 V 86.5 h 3.809 v -6.767 h 3.035 z m -6.5,-15.4 h 3.06 a 3.087,3.087 0 0 1 2.279,0.749 2.793,2.793 0 0 1 0.742,2.057 2.608,2.608 0 0 1 -0.787,2.012 3.145,3.145 0 0 1 -2.221,0.73 h -3.073 z m 27.968,5.751 a 11.068,11.068 0 0 0 -0.984,-4.793 7.324,7.324 0 0 0 -2.78,-3.186 8.147,8.147 0 0 0 -8.214,0 7.324,7.324 0 0 0 -2.78,3.186 11.1,11.1 0 0 0 -0.984,4.805 v 0.914 a 10.834,10.834 0 0 0 1,4.716 7.335,7.335 0 0 0 2.793,3.155 8.159,8.159 0 0 0 8.22,-0.013 7.261,7.261 0 0 0 2.761,-3.174 11.161,11.161 0 0 0 0.965,-4.786 v -0.823 z m -3.859,0.889 a 7.839,7.839 0 0 1 -1.041,4.386 3.646,3.646 0 0 1 -5.942,-0.057 7.876,7.876 0 0 1 -1.041,-4.392 v -0.9 a 7.694,7.694 0 0 1 1.055,-4.377 3.678,3.678 0 0 1 5.929,0.019 7.779,7.779 0 0 1 1.041,4.418 v 0.9 z m 12.352,8.76 a 8.7,8.7 0 0 0 4.355,-1.117 7.6,7.6 0 0 0 2.99,-3.11 9.668,9.668 0 0 0 1.06,-4.583 v -0.851 a 9.638,9.638 0 0 0 -1.079,-4.6 7.664,7.664 0 0 0 -3,-3.123 8.638,8.638 0 0 0 -4.361,-1.1 h -5.687 V 86.5 h 5.725 z m -0.038,-15.4 a 4.123,4.123 0 0 1 3.415,1.454 6.7,6.7 0 0 1 1.168,4.272 V 77.8 a 6.6,6.6 0 0 1 -1.206,4.177 4.135,4.135 0 0 1 -3.415,1.46 h -1.841 V 71.1 Z m 26.241,-3.085 h -3.8 V 80.2 l -7.427,-12.187 h -3.809 V 86.5 h 3.809 V 74.338 l 7.42,12.162 h 3.808 V 68.016 Z m 18.51,8.836 a 11.068,11.068 0 0 0 -0.984,-4.793 7.324,7.324 0 0 0 -2.78,-3.186 8.147,8.147 0 0 0 -8.214,0 7.324,7.324 0 0 0 -2.78,3.186 11.1,11.1 0 0 0 -0.984,4.805 v 0.914 a 10.834,10.834 0 0 0 1,4.716 7.335,7.335 0 0 0 2.793,3.155 8.159,8.159 0 0 0 8.22,-0.013 7.261,7.261 0 0 0 2.761,-3.174 11.161,11.161 0 0 0 0.965,-4.786 v -0.823 z m -3.859,0.889 a 7.839,7.839 0 0 1 -1.041,4.386 3.646,3.646 0 0 1 -5.942,-0.057 7.876,7.876 0 0 1 -1.041,-4.392 v -0.9 a 7.694,7.694 0 0 1 1.054,-4.374 3.678,3.678 0 0 1 5.929,0.019 7.779,7.779 0 0 1 1.041,4.418 z m 13.52,-0.635 h -7.147 v 2.958 h 7.147 v -2.957 z m 3.187,-9.09 V 86.5 h 3.808 v -5.053 l -0.38,-8.709 4.977,13.762 h 2.615 l 4.99,-13.774 -0.381,8.722 V 86.5 h 3.821 V 68.016 h -5 l -4.723,13.406 -4.749,-13.406 h -4.976 z m 34.494,18.485 h 4.05 l -6.919,-18.484 h -3.529 l -6.881,18.484 h 4.05 l 1.269,-3.809 h 6.678 z m -4.634,-13.812 2.323,6.919 h -4.621 z m 22.8,-4.672 h -15.056 V 71.1 h 5.586 v 15.4 h 3.809 V 71.1 h 5.662 v -3.084 z m 13.292,7.49 h -7.312 V 71.1 h 8.556 v -3.084 h -12.364 V 86.5 h 12.391 v -3.06 h -8.582 v -4.951 h 7.312 v -2.983 z m 3.5,-7.49 V 86.5 h 3.809 v -5.053 l -0.381,-8.709 4.981,13.762 h 2.617 l 4.99,-13.774 -0.381,8.722 V 86.5 h 3.821 V 68.016 h -5 l -4.73,13.406 -4.749,-13.406 h -4.976 z m 34.498,18.484 h 4.05 l -6.922,-18.484 h -3.529 l -6.878,18.484 h 4.05 l 1.269,-3.809 h 6.678 z m -4.634,-13.812 2.324,6.919 h -4.622 z m 22.8,-4.672 h -15.056 V 71.1 h 5.586 v 15.4 h 3.809 V 71.1 h 5.662 v -3.084 z m 6.221,0 h -3.809 V 86.5 h 3.809 z m 14.231,12.327 a 3.646,3.646 0 0 1 -1,2.495 3.761,3.761 0 0 1 -2.635,0.806 3.175,3.175 0 0 1 -2.855,-1.384 8.177,8.177 0 0 1 -0.908,-4.38 v -1.4 a 7.646,7.646 0 0 1 0.971,-4.234 3.236,3.236 0 0 1 2.85,-1.365 3.69,3.69 0 0 1 2.609,0.806 3.867,3.867 0 0 1 1,2.6 h 3.808 a 7.026,7.026 0 0 0 -2.26,-4.811 8.39,8.39 0 0 0 -9.21,-0.628 7.037,7.037 0 0 0 -2.685,3.117 11.07,11.07 0 0 0 -0.94,4.7 v 1.13 a 9.814,9.814 0 0 0 2.038,6.57 6.954,6.954 0 0 0 5.592,2.393 7.736,7.736 0 0 0 5.235,-1.718 6.54,6.54 0 0 0 2.2,-4.7 h -3.809 z m -5.483,-17.393 h -3.136 v 0.114 l 3.834,3.593 h 2.323 l 3.834,-3.567 v -0.14 h -3.135 l -1.854,1.815 z m 22.331,23.55 h 4.532 l -6.754,-10.27 6.564,-8.214 h -4.68 l -4.71,6.081 -1.676,2.3 v -8.381 h -3.814 V 86.5 h 3.808 v -5.281 l 1.981,-2.133 z m 10.016,-18.484 h -3.808 V 86.5 h 3.808 z" />
    <g
       id="g10104">
      <path
         d="m 172.75986,108.19079 h -7.30751 v 7.55061 h -3.80599 V 97.264597 h 12.02694 v 3.083703 h -8.22095 v 4.77148 h 7.30751 z"
         id="path6573"
         style="font-weight:bold;font-size:25.9858px;line-height:1.25;font-family:Roboto;-inkscape-font-specification:'Roboto, Bold';fill:#25303e;stroke-width:1.13729" />
      <path
         d="m 183.87336,111.93437 h -6.67317 l -1.26867,3.80703 h -4.04704 l 6.87616,-18.476803 h 3.52689 l 6.91422,18.476803 h -4.04704 z m -5.64555,-3.0837 h 4.61794 l -2.32167,-6.91611 z"
         id="path6575"
         style="font-weight:bold;font-size:25.9858px;line-height:1.25;font-family:Roboto;-inkscape-font-specification:'Roboto, Bold';fill:#25303e;stroke-width:1.13729" />
      <path
         d="m 196.71224,108.33038 -1.97911,2.13194 v 5.27908 h -3.806 V 97.264597 h 3.806 v 8.375473 l 1.67463,-2.29691 4.70675,-6.078563 h 4.68137 l -6.55899,8.210503 6.7493,10.2663 h -4.52913 z"
         id="path6577"
         style="font-weight:bold;font-size:25.9858px;line-height:1.25;font-family:Roboto;-inkscape-font-specification:'Roboto, Bold';fill:#25303e;stroke-width:1.13729" />
      <path
         d="m 221.40046,97.264597 v 12.169823 q 0,3.03293 -1.903,4.79685 -1.89031,1.76393 -5.17615,1.76393 -3.23509,0 -5.13809,-1.71316 -1.903,-1.71317 -1.94105,-4.70804 V 97.264597 h 3.80599 v 12.195193 q 0,1.81469 0.86269,2.65223 0.87538,0.82486 2.41046,0.82486 3.20972,0 3.26047,-3.37557 V 97.264597 Z"
         id="path6579"
         style="font-weight:bold;font-size:25.9858px;line-height:1.25;font-family:Roboto;-inkscape-font-specification:'Roboto, Bold';fill:#25303e;stroke-width:1.13729" />
      <path
         d="m 228.32737,112.68308 h 8.08139 v 3.05832 H 224.52138 V 97.264597 h 3.80599 z"
         id="path6581"
         style="font-weight:bold;font-size:25.9858px;line-height:1.25;font-family:Roboto;-inkscape-font-specification:'Roboto, Bold';fill:#25303e;stroke-width:1.13729" />
      <path
         d="m 249.89467,100.3483 h -5.65825 v 15.3931 h -3.80599 v -15.3931 h -5.58212 v -3.083703 h 15.04636 z"
         id="path6583"
         style="font-weight:bold;font-size:25.9858px;line-height:1.25;font-family:Roboto;-inkscape-font-specification:'Roboto, Bold';fill:#25303e;stroke-width:1.13729" />
      <path
         d="m 263.17759,107.73393 h -7.3075 v 4.94915 h 8.57617 v 3.05832 H 252.06409 V 97.264597 h 12.35679 v 3.083703 h -8.55079 v 4.40347 h 7.3075 z"
         id="path6585"
         style="font-weight:bold;font-size:25.9858px;line-height:1.25;font-family:Roboto;-inkscape-font-specification:'Roboto, Bold';fill:#25303e;stroke-width:1.13729" />
      <path
         d="m 280.83741,100.3483 h -5.65825 v 15.3931 h -3.80599 v -15.3931 h -5.58213 v -3.083703 h 15.04637 z"
         id="path6587"
         style="font-weight:bold;font-size:25.9858px;line-height:1.25;font-family:Roboto;-inkscape-font-specification:'Roboto, Bold';fill:#25303e;stroke-width:1.13729" />
      <path
         d="m 302.69649,97.264597 v 12.169823 q 0,3.03293 -1.903,4.79685 -1.89031,1.76393 -5.17615,1.76393 -3.23509,0 -5.13809,-1.71316 -1.903,-1.71317 -1.94105,-4.70804 V 97.264597 h 3.80599 v 12.195193 q 0,1.81469 0.86269,2.65223 0.87538,0.82486 2.41046,0.82486 3.20972,0 3.26047,-3.37557 V 97.264597 Z"
         id="path6589"
         style="font-weight:bold;font-size:25.9858px;line-height:1.25;font-family:Roboto;-inkscape-font-specification:'Roboto, Bold';fill:#25303e;stroke-width:1.13729" />
      <path
         d="m 327.30858,115.7414 h -3.80599 l -7.40901,-12.15713 v 12.15713 h -3.80599 V 97.264597 h 3.80599 l 7.42169,12.182513 V 97.264597 h 3.79331 z"
         id="path6591"
         style="font-weight:bold;font-size:25.9858px;line-height:1.25;font-family:Roboto;-inkscape-font-specification:'Roboto, Bold';fill:#25303e;stroke-width:1.13729" />
      <path
         d="m 334.67953,115.7414 h -3.80599 V 97.264597 h 3.80599 z"
         id="path6593"
         style="font-weight:bold;font-size:25.9858px;line-height:1.25;font-family:Roboto;-inkscape-font-specification:'Roboto, Bold';fill:#25303e;stroke-width:1.13729" />
      <path
         d="m 347.78484,110.89377 q 0,-1.07865 -0.7612,-1.64971 -0.7612,-0.58374 -2.74031,-1.21825 -1.97912,-0.64719 -3.13361,-1.26901 -3.14629,-1.70047 -3.14629,-4.58113 0,-1.49743 0.83732,-2.664924 0.85,-1.180181 2.42315,-1.840066 1.58583,-0.659886 3.55226,-0.659886 1.97912,0 3.52689,0.723337 1.54777,0.710646 2.39777,2.017727 0.8627,1.307082 0.8627,2.969482 h -3.80599 q 0,-1.269 -0.79927,-1.96696 -0.79926,-0.71065 -2.24553,-0.71065 -1.39554,0 -2.16942,0.59644 -0.77389,0.58375 -0.77389,1.54819 0,0.901 0.90076,1.51012 0.91344,0.60913 2.67688,1.14211 3.24778,0.97714 4.73212,2.42381 1.48434,1.44668 1.48434,3.60399 0,2.39844 -1.8142,3.76897 -1.81419,1.35784 -4.88435,1.35784 -2.13136,0 -3.88212,-0.77409 -1.75075,-0.78679 -2.67687,-2.14464 -0.91345,-1.35783 -0.91345,-3.14715 h 3.81868 q 0,3.05832 3.65376,3.05832 1.35747,0 2.11867,-0.54567 0.7612,-0.55837 0.7612,-1.5482 z m -3.00674,-16.776321 1.85226,-1.814685 h 3.1336 v 0.139591 l -3.83137,3.56592 h -2.32166 l -3.83137,-3.591301 v -0.11421 h 3.1336 z"
         id="path6595"
         style="font-weight:bold;font-size:25.9858px;line-height:1.25;font-family:Roboto;-inkscape-font-specification:'Roboto, Bold';fill:#25303e;stroke-width:1.13729" />
      <path
         d="m 368.1596,97.264597 v 12.169823 q 0,3.03293 -1.903,4.79685 -1.89032,1.76393 -5.17616,1.76393 -3.2351,0 -5.13809,-1.71316 -1.903,-1.71317 -1.94105,-4.70804 V 97.264597 h 3.80599 v 12.195193 q 0,1.81469 0.86269,2.65223 0.87538,0.82486 2.41046,0.82486 3.20972,0 3.26047,-3.37557 V 97.264597 Z"
         id="path6597"
         style="font-weight:bold;font-size:25.9858px;line-height:1.25;font-family:Roboto;-inkscape-font-specification:'Roboto, Bold';fill:#25303e;stroke-width:1.13729" />
    </g>
  </g>
</svg>
